<svg width="64" height="64" viewBox="0 0 64 64" fill="none" xmlns="http://www.w3.org/2000/svg">
<path d="M0 10C0 4.47715 4.47715 0 10 0H54C59.5228 0 64 4.47715 64 10V54C64 59.5228 59.5228 64 54 64H10C4.47715 64 0 59.5228 0 54V10Z" fill="#FF8800"/>
<path fill-rule="evenodd" clip-rule="evenodd" d="M41.7525 22.9405C41.7525 28.2789 37.4005 32.6309 32.0619 32.6309C26.6655 32.6309 22.3134 28.2789 22.3134 22.9405C22.3134 17.602 26.6655 13.25 32.0619 13.25C37.4005 13.25 41.7525 17.602 41.7525 22.9405ZM36.0659 22.9405C36.0659 20.7355 34.2669 18.9366 32.0619 18.9366C29.7989 18.9366 28 20.7355 28.0581 22.9405C28.0581 25.1455 29.8571 26.9443 32.0619 26.9443C34.2669 26.9443 36.0659 25.1455 36.0659 22.9405Z" fill="white"/>
<path d="M41.5784 38.2597C39.8376 39.3621 37.9227 40.1165 35.9499 40.5808L41.4624 45.9192C42.5648 47.0219 42.5648 48.8205 41.4624 49.9232C40.36 51.0256 38.5611 51.0256 37.4587 49.9232L32.12 44.5845L26.7816 49.9232C26.2013 50.4453 25.505 50.7355 24.7507 50.7355C23.9963 50.7355 23.3 50.5035 22.7197 49.9232C21.6172 48.8205 21.6172 47.0219 22.7197 45.9192L28.1163 40.5227C26.1433 40.0584 24.2284 39.3043 22.4876 38.2016C21.153 37.3893 20.7468 35.6485 21.5011 34.3139C22.3716 32.9792 24.1124 32.6312 25.447 33.4435C29.3928 35.9387 34.5571 35.9387 38.503 33.4435C39.8376 32.5731 41.6365 32.9792 42.4488 34.3139C43.3192 35.6485 42.9131 37.4472 41.5784 38.2597Z" fill="white"/>
</svg>
