<svg width="32" height="32" viewBox="0 0 32 32" fill="none" xmlns="http://www.w3.org/2000/svg">
<rect width="32" height="32" fill="white"/>
<path d="M0 15.36C0 8.11733 0 4.50133 2.24 2.24C4.512 0 8.128 0 15.36 0H16.64C23.8827 0 27.4987 0 29.76 2.24C32 4.512 32 8.128 32 15.36V16.64C32 23.8827 32 27.4987 29.76 29.76C27.488 32 23.872 32 16.64 32H15.36C8.11733 32 4.50133 32 2.24 29.76C0 27.488 0 23.872 0 16.64V15.36Z" fill="#0077FF"/>
<path d="M17.024 23.0507C9.72801 23.0507 5.56801 18.0587 5.39734 9.73869H9.06667C9.18401 15.84 11.872 18.4214 14.0053 18.9547V9.73869H17.4507V14.9974C19.552 14.7734 21.7707 12.3734 22.5173 9.72803H25.952C25.672 11.0974 25.1125 12.3943 24.3087 13.5377C23.5048 14.6811 22.4738 15.6464 21.28 16.3734C22.6122 17.0364 23.7887 17.9744 24.7319 19.1254C25.6751 20.2763 26.3636 21.6142 26.752 23.0507H22.9653C22.1547 20.5227 20.128 18.56 17.4507 18.2934V23.0507H17.0347H17.024Z" fill="white"/>
</svg>
