<svg width="64" height="64" viewBox="0 0 64 64" fill="none" xmlns="http://www.w3.org/2000/svg">
<path d="M54 0H10C4.47715 0 0 4.47715 0 10V54C0 59.5228 4.47715 64 10 64H54C59.5228 64 64 59.5228 64 54V10C64 4.47715 59.5228 0 54 0Z" fill="#FF0000"/>
<path d="M47.2 24.2001C46.8 22.8001 45.8 21.8 44.4 21.4C42 20.8 31.8 20.8 31.8 20.8C31.8 20.8 21.8 20.8 19.2 21.4C17.8 21.8 16.8 22.8001 16.4 24.2001C16 26.8001 16 32 16 32C16 32 16 37.2 16.6 39.8C17 41.2 18 42.2 19.4 42.6C21.8 43.2 32 43.2001 32 43.2001C32 43.2001 42 43.2 44.6 42.6C46 42.2 47 41.2 47.4 39.8C48 37.2 48 32 48 32C48 32 48 26.8001 47.2 24.2001ZM28.8 36.8V27.2001L37.2 32L28.8 36.8Z" fill="white"/>
</svg>
